<?xml version="1.0" encoding="UTF-8" standalone="no"?>
<!-- Created with Inkscape (http://www.inkscape.org/) -->

<svg
   width="450"
   height="240"
   viewBox="0 0 119.0625 63.500003"
   version="1.1"
   id="svg5"
   xmlns="http://www.w3.org/2000/svg"
   xmlns:svg="http://www.w3.org/2000/svg">
  <defs
     id="defs2">
    <rect
       x="200.47446"
       y="543.77014"
       width="291.0889"
       height="57.223568"
       id="rect31058" />
    <rect
       x="227.12231"
       y="386.20126"
       width="206.09865"
       height="62.724052"
       id="rect26642" />
    <rect
       x="219.65756"
       y="393.71371"
       width="245.10057"
       height="48.655739"
       id="rect15352" />
    <rect
       x="22.162878"
       y="85.972359"
       width="409.45239"
       height="121.76915"
       id="rect3606" />
  </defs>
  <g
     id="layer1"
     style="display:inline">
    <g
       id="g16772"
       transform="translate(81.016456,4.603132)">
      <g
         id="layer1-3">
        <path
           style="fill:#000000;stroke-width:0.242983"
           d="m 17.18167,53.778606 c 0,-0.14228 0.365488,-0.41541 0.812194,-0.60695 0.706475,-0.30291 0.898874,-0.59213 1.478123,-2.22193 0.50895,-1.431998 0.661676,-2.28983 0.647889,-3.639053 -0.01961,-1.91862 -0.783775,-6.616685 -1.405417,-8.640409 -0.378375,-1.231785 -0.410268,-1.262769 -1.202086,-1.167908 -0.901122,0.107954 -2.192128,-0.09475 -2.697539,-0.423542 -0.267601,-0.174088 -0.236603,-0.3434 0.168337,-0.919421 0.400325,-0.569459 0.589069,-1.565705 0.975697,-5.149971 0.263647,-2.444163 0.592664,-4.749753 0.731148,-5.123536 0.405592,-1.094729 0.313083,-1.319583 -0.887556,-2.157281 -0.626641,-0.437215 -1.625069,-1.229497 -2.218729,-1.760626 -0.997231,-0.892193 -1.162448,-0.955687 -2.170796,-0.834256 -1.313368,0.158164 -2.9696888,-0.502236 -3.1630888,-1.261172 -0.146537,-0.575034 0.328765,-0.776914 1.8558758,-0.788262 0.641032,-0.0047 0.849747,-0.07843 0.628892,-0.221986 -0.181807,-0.118171 -0.25621,-0.338306 -0.16534,-0.489187 0.228752,-0.379823 0.972157,0.03741 2.174938,1.220663 1.00638,0.990045 3.198786,2.121065 4.356286,2.247323 l 0.680829,0.07427 -0.02074,-1.476871 c -0.0311,-2.21409 -0.367433,-4.844495 -0.708143,-5.538266 -0.166212,-0.33845 -0.568281,-0.909472 -0.893487,-1.268938 -0.325207,-0.359466 -0.818327,-0.980777 -1.095822,-1.380689 -0.510514,-0.73573 -3.878027,-2.7438365 -3.878027,-2.3125345 0,0.1285515 -0.261142,0.4916545 -0.580316,0.8068955 -0.443237,0.437774 -0.8611327,0.576113 -1.7691278,0.585644 -0.653845,0.0069 -1.354537,0.153623 -1.557093,0.326132 -0.270544,0.230413 -0.413067,0.239289 -0.537037,0.03345 -0.105932,-0.175892 -0.477825,-0.220703 -0.998986,-0.120372 -0.509111,0.09801 -0.962363,0.0473 -1.171845,-0.131106 -0.187886,-0.160015 -0.341611,-0.20843 -0.341611,-0.107587 0,0.100843 -0.161907,0.04546 -0.359794,-0.123073 -0.52067,-0.443435 -0.441827,-1.204661 0.179897,-1.7369085 0.29683,-0.254111 0.417351,-0.465705 0.267825,-0.470209 -0.332981,-0.01003 -0.595993,-1.238916 -0.265159,-1.238916 0.138691,0 0.125327,-0.136809 -0.03242,-0.331854 -0.315283,-0.389844 0.08777,-0.828581 1.408959,-1.533706 0.628099,-0.335219 0.73381,-0.471216 0.41976,-0.540022 -0.230868,-0.05058 -0.41976,-0.198086 -0.41976,-0.327788 0,-0.421943 0.772549,-0.553714 1.721862,-0.293691 0.853666,0.233825 0.917327,0.217206 0.786637,-0.205351 -0.0876,-0.283221 -0.0259,-0.459765 0.160667,-0.459765 0.402643,0 1.6483621,1.238361 1.6483621,1.638627 0,0.173688 0.3238137,0.561473 0.7195867,0.861745 0.395773,0.300273 0.719588,0.677704 0.719588,0.838739 0,0.161033 0.161908,0.430679 0.359794,0.599212 0.197887,0.168533 0.359794,0.561646 0.359794,0.873582 0,0.665519 1.703983,1.7543125 3.837803,2.4522385 1.682105,0.55018 1.871354,0.715436 2.068695,1.806426 0.213853,1.182272 0.973316,2.990545 1.256009,2.990545 0.122946,0 0.558536,-0.391532 0.967975,-0.870073 0.974927,-1.139464 1.066604,-2.575959 0.164397,-2.575959 -1.179583,0 -1.338862,-0.207083 -1.338862,-1.740692 0,-1.1731115 0.0864,-1.4893225 0.46348,-1.6964205 0.613165,-0.336751 0.88569,-1.234566 0.461673,-1.520953 -0.537515,-0.363047 0.906519,-1.520374 1.691833,-1.355927 2.099182,0.439574 2.727774,0.623751 2.967119,0.869367 0.1477,0.151566 0.511723,0.275575 0.808941,0.275575 0.88499,0 1.763906,0.5363 1.919148,1.171032 0.07995,0.326889 0.08767,1.3318435 0.01717,2.2332335 -0.133857,1.711164 0.07938,2.50322 0.673919,2.50322 0.42603,0 0.452738,0.289795 0.06352,0.689206 -0.443897,0.455523 -1.33733,0.350658 -1.895886,-0.222526 -0.44094,-0.45249 -0.493475,-0.74566 -0.415942,-2.321211 0.0488,-0.991822 0.0077,-1.6725805 -0.0913,-1.512799 -0.09902,0.159783 -0.181694,0.47784 -0.183713,0.706792 -0.0019,0.228952 -0.489394,0.921879 -1.083054,1.539837 -1.220952,1.270924 -1.328916,1.612991 -0.509096,1.612991 0.313658,0 0.664457,0.138457 0.779555,0.307682 0.115096,0.169225 0.205702,1.415335 0.201346,2.769133 -0.0074,2.307461 -0.05855,2.561546 -0.817135,4.061396 -1.327676,2.625028 -1.0219,4.398354 1.20776,7.00431 0.39111,0.457116 1.259308,2.031122 1.929331,3.49779 0.670023,1.466666 1.44794,2.923294 1.728704,3.236947 l 0.51047,0.570282 -0.596567,0.473332 c -0.850696,0.674964 -1.929876,0.936277 -3.240577,0.784674 -0.898822,-0.103964 -1.113893,-0.06036 -1.026675,0.208147 0.06069,0.186817 0.479659,0.436596 0.931059,0.55507 0.4514,0.118473 1.663795,0.491449 2.694217,0.82884 1.817268,0.595029 2.126525,0.608397 4.166395,0.180094 0.74238,-0.155874 0.77243,-0.128054 1.11722,1.034438 0.19488,0.65704 0.68614,1.803828 1.09169,2.548418 0.7774,1.427305 0.95834,2.461451 0.43069,2.461451 -0.17346,0 -0.49184,-0.37974 -0.70752,-0.843869 -0.78493,-1.68915 -3.71117,-2.860975 -8.563835,-3.429432 -1.776697,-0.208129 -3.260845,-0.347132 -3.298106,-0.308893 -0.03726,0.03824 0.05407,0.69197 0.20295,1.452739 0.201024,1.027194 0.201023,1.863952 -4e-6,3.25097 -0.385012,2.65644 -0.329255,4.029786 0.213435,5.257063 0.260482,0.58908 0.411521,1.17413 0.335643,1.30011 -0.07588,0.126 -0.609346,0.45645 -1.185486,0.73436 -0.576141,0.27792 -1.328704,0.8836 -1.672364,1.34596 -0.56278,0.75716 -0.742733,0.84066 -1.811941,0.84066 -0.669918,0 -1.187106,-0.11272 -1.187106,-0.25871 z"
           id="path781" />
      </g>
    </g>
    <text
       xml:space="preserve"
       transform="matrix(0.26458333,0,0,0.26458333,-3.7747313,-12.412867)"
       id="text3604"
       style="font-style:normal;font-variant:normal;font-weight:normal;font-stretch:normal;font-size:53.3333px;line-height:1.25;font-family:Pacifico;-inkscape-font-specification:Pacifico;white-space:pre;shape-inside:url(#rect3606);fill:#ffffff;fill-opacity:1;stroke:none;stroke-opacity:0.35212153"><tspan
         x="22.162109"
         y="132.21409"
         id="tspan70118">Maid for You</tspan></text>
    <text
       xml:space="preserve"
       transform="scale(0.26458333)"
       id="text15350"
       style="font-style:normal;font-variant:normal;font-weight:normal;font-stretch:normal;font-size:40px;line-height:1.25;font-family:Pacifico;-inkscape-font-specification:Pacifico;white-space:pre;shape-inside:url(#rect15352);fill:#000000;fill-opacity:1;stroke:none" />
    <text
       xml:space="preserve"
       transform="scale(0.26458333)"
       id="text26640"
       style="font-style:normal;font-variant:normal;font-weight:normal;font-stretch:normal;font-size:40px;line-height:1.25;font-family:Pacifico;-inkscape-font-specification:Pacifico;white-space:pre;shape-inside:url(#rect26642);fill:#000000;fill-opacity:1;stroke:none" />
    <text
       xml:space="preserve"
       transform="matrix(0.31231187,0,0,0.38931706,-59.400035,-186.07148)"
       id="text31056"
       style="font-style:normal;font-weight:normal;font-size:48px;line-height:1.25;font-family:sans-serif;white-space:pre;shape-inside:url(#rect31058);fill:#ffffff;fill-opacity:1;stroke:none;stroke-width:1.00087;stroke-miterlimit:4;stroke-dasharray:none;stroke-opacity:0.416446"><tspan
         x="200.47461"
         y="586.23828"
         id="tspan70122"><tspan
           style="font-family:Pacifico;-inkscape-font-specification:Pacifico"
           id="tspan70120">Housekeeping</tspan></tspan></text>
    <path
       style="fill:#000000;fill-opacity:0;stroke:none;stroke-width:0.198;stroke-miterlimit:4;stroke-dasharray:none;stroke-opacity:0.0590395"
       d="m 74.658146,16.130481 c -0.28852,-1.654505 -0.6207,-3.051696 -0.87928,-3.698455 -0.64244,-1.606788 -1.71263,-2.346474 -4.31572,-2.982879 -0.73679,-0.180121 -0.65473,-0.365242 0.26557,-0.599043 1.005,-0.255307 2.27283,-0.76225 2.72711,-1.09044 1.00585,-0.726676 1.54799,-1.944641 2.01912,-4.53615 0.15237,-0.838182 0.24615,-1.150693 0.35306,-1.176604 0.0951,-0.02304 0.14557,0.03849 0.14557,0.177843 0,0.449658 0.55933,2.944283 0.80175,3.57585 0.64891,1.690513 1.73129,2.461843 4.35459,3.103195 0.32028,0.07833 0.509,0.179402 0.509,0.272681 0,0.09324 -0.18882,0.194472 -0.509,0.272898 -1.60141,0.392224 -2.88117,0.977199 -3.45911,1.581147 -0.69387,0.725104 -1.21258,2.152883 -1.57857,4.345107 -0.1626,0.973987 -0.3416,1.285237 -0.43409,0.75485 z m 0.62005,-2.861154 c 0.40572,-1.525774 1.06599,-2.527082 2.06294,-3.128469 0.2741,-0.165349 0.99878,-0.460391 1.61039,-0.655663 0.6116,-0.195258 1.02673,-0.35688 0.92252,-0.359157 -0.3558,-0.0081 -1.89579,-0.550499 -2.46506,-0.868742 -0.71238,-0.398255 -1.35884,-1.135867 -1.70664,-1.947243 -0.2869,-0.66931 -0.66896,-2.075297 -0.77084,-2.836747 -0.0341,-0.255389 -0.0931,-0.440754 -0.13091,-0.411956 -0.0378,0.02887 -0.11736,0.356894 -0.17672,0.729088 -0.13403,0.840201 -0.48694,2.079647 -0.7566,2.657467 -0.54189,1.161209 -1.56334,1.936902 -3.20514,2.43406 l -0.99187,0.300355 0.85909,0.25154 c 1.4214,0.416184 2.09743,0.817583 2.77017,1.644815 0.49264,0.605778 0.627,0.857358 0.86461,1.619039 0.15474,0.495992 0.34185,1.23271 0.4158,1.637145 0.20293,1.109792 0.22875,1.129551 0.39015,0.298755 0.0816,-0.420196 0.22028,-1.034132 0.30807,-1.364287 z"
       id="path58572" />
  </g>
  <g
     id="layer2">
    <path
       style="display:inline;mix-blend-mode:multiply;fill:#ffff9d;fill-opacity:1;stroke:#000000;stroke-width:0.048;stroke-miterlimit:4;stroke-dasharray:none;stroke-dashoffset:0;stroke-opacity:0.35212153"
       d="m 74.832163,14.247508 c 0,-0.230548 -0.41158,-1.819524 -0.6015,-2.322222 -0.21955,-0.581128 -0.55396,-1.074437 -1.10116,-1.624418 -0.52211,-0.5247557 -1.22148,-0.9118674 -2.19653,-1.2158194 -0.32654,-0.10179 -0.59356,-0.2007416 -0.59338,-0.2198976 1.7e-4,-0.01915 0.23527,-0.105235 0.52245,-0.191293 0.87845,-0.2632526 1.72793,-0.7201666 2.24876,-1.2095636 0.56793,-0.533654 0.88029,-1.007089 1.14283,-1.732124 0.21635,-0.597509 0.57566,-1.990418 0.58287,-2.259613 0.004,-0.147714 0.009,-0.150702 0.0588,-0.0337 0.0299,0.0706 0.13277,0.460521 0.22853,0.866487 0.61319,2.599618 1.38934,3.527769 3.5915,4.294867 0.31771,0.1106726 0.62098,0.2174266 0.67394,0.2372356 0.0534,0.02 -0.24643,0.1577046 -0.67394,0.3095116 -0.92781,0.3294607 -1.45123,0.5876457 -1.83275,0.9040234 -0.87305,0.723998 -1.41849,1.797848 -1.81986,3.582859 -0.15859,0.705321 -0.23053,0.896824 -0.23053,0.61367 z"
       id="path62037" />
  </g>
</svg>
